<svg xmlns="http://www.w3.org/2000/svg" width="888" height="600">
  <g fill="#88C0D0">
    <path d="M640.564 315.865a1345.14 1345.14 0 0 0-43.01-2.08l-15.619-33.561 4.1-5.4c1.209 4.801 2.5 9.51 2.5 9.51l5.23-6.35 7.93 16.16 4.77-14.711 6.35 11.621 4.371-5.99 23.378 30.801z"/>
    <path d="M597.555 313.785c-12.23-.391-24.82-.611-37.619-.611l-1.65-1.779-43.76-47.4v-.01l-4.561-4.93-3.59-3.891 9.209-19.779 3.561 16.119 11.121-31.969 8.059 19.789 6.881-12.699 11.949 24.879 5.16-13.43 19.621 42.15 15.619 33.561zm-37.619-.611c-1 0-2.01 0-3.01.01-9.951.021-20.021.191-30.131.521-15.85.52-32.16 1.42-48.85 2.539-4.68.311-9.4.641-14.141.98l-21.38-36.52 22.48-24.361 2.09 8.371 15.09-12.41 4.102 7.109 7.66-7.91 13.398 13.211 2.721-5.66 48.32 52.34 1.651 1.78z"/>
    <path d="M463.805 317.225c-17.25 1.26-34.871 2.699-52.821 4.18-1.84-.209-3.699-.42-5.56-.619a1494.73 1494.73 0 0 0-59.07-5.352l-17.83-38.289v-.01l26.351-44.971 5.07 20.031 8.21-21.67 3.59 8.908 12.68-19.209 8.39 22.67 5.601-15.01 13.069 16.74 5.091-8.031 47.229 80.632z"/>
    <path d="M346.354 315.434c-12.779-.898-25.8-1.639-38.97-2.209-16.05-.689-32.34-1.121-48.71-1.221l25.92-55.689c2.271 7.961 4.17 14.41 4.17 14.41l6.72-19.6 2.99 13.209 6.721-20.199 8.829 26.59 5.25-13.449 9.25 19.859v.01l17.83 38.289z"/>
  </g>
  <path d="M617.186 285.064l-4.371 5.99-6.35-11.621-4.77 14.711-7.93-16.16-5.23 6.35s-1.291-4.709-2.5-9.51l11.689-15.41 19.462 25.65zm-54.872-46.99l-5.16 13.43-11.949-24.879-6.881 12.699-8.058-19.789-11.121 31.969-3.561-16.119 22.74-48.85zm-52.349 20.971v.01l-2.721 5.66-13.398-13.211-7.66 7.91-4.102-7.109-15.09 12.41-2.09-8.371 21.282-23.049 20.189 21.869zm-93.39-22.451l-5.091 8.031-13.069-16.74-5.601 15.01-8.39-22.67-12.679 19.209-3.59-8.909-8.21 21.67-5.07-20.031 29.549-50.449zm-97.301 20.681l-5.25 13.449-8.829-26.59-6.721 20.199-2.99-13.209-6.72 19.6s-1.899-6.449-4.17-14.41v-.01l17.12-36.77 17.56 37.741z" fill="#ECEFF4"/>
  <path opacity=".1" fill="#2E3440" d="M597.727 259.42l8.738 20.01-4.772 14.716-7.929-16.16-5.229 6.35-2.5-9.51-4.305 4.959 5.463 11.736 6.162-4.013 8.338 15.293 7.471-11.752 4.336 7.178 11.18 17.369 15.884.269z"/>
  <path opacity=".1" fill="#27313E" d="M538.322 186.529l18.836 64.981-11.953-24.887-6.885 12.697-8.054-19.783-11.118 31.973-3.566-16.129-6.336 13.621 9.902 12.533 10.53-23.449 9.271 10.232 6.815-6.691 11.394 23.084 4.705-10.805 21.237 59.268 14.455.611z"/>
  <path opacity=".1" fill="#2E3440" d="M486.189 233.289l28.331 30.699-3.754 10.18-16.92-14.748-7.658 9.475-6.536-6.491-14.746 12.117-4.433-13.373 4.433-4.802 2.092 8.365 15.084-12.408 4.106 7.117 7.392-7.455zm-22.384 83.936l-79.507-135.842 27.439 62.31-.378.598-13.072-16.738-5.604 15.004-8.386-22.666-12.679 19.205-3.587-8.91-8.217 21.677-5.069-20.029-5.904 10.078 10.225 23.152 9.91-17.578 2.899 5.547 9.602-15.609 10.458 17.535 11.609-11.248 47.681 73.514zM320.276 259.42l-18.562-39.883 14.293 48.137-1.776 3.433-8.824-26.593-6.723 20.197-2.988-13.201-6.723 19.597-4.31-14.935-3.977 8.539 8.287 16.162 5.977-10.107 3.734 6.017 6.723-12.072 8.824 13.275 3.535-4.392 15.583 41.84h13.005l-22.815-49.006z"/>
  <path opacity=".1" d="M566.754 283.818v5.834M533.1 253.305v13.73m0 3.465v5.83m16.97 5.68v13.728m-37.031-6.242v5.836m8.074-20.264v8.748m-32.465-9.779v13.729m1.077 13.736v5.83m-19.596-19.975v13.729m-17.477-17.039v3.621m-55.665 10.424v12.65m-30.712-30.426v12.653m-19.921-12.653v16.729m41.626-40.033v6.601m0 3.938v3.301m35.724 20.359v5.834m-43.008-48.219v8.186m26.053-1.098v13.205m-9.762 20.061v5.832m-30.712-27.449v5.832m-61.926 4.154v13.576m6.047-.713v7.354m-18.156-5.149v3.789m27.568 7.799v7.354m-27.568-10.215v7.576m315.797-9.277v8.748" fill="#3B4252" stroke="#3B4252" stroke-width="2" stroke-linecap="round" stroke-miterlimit="10"/>
  <linearGradient id="a" gradientUnits="userSpaceOnUse" x1="136.474" y1="321.973" x2="410.984" y2="321.973">
    <stop offset=".08" stop-color="#fff"/>
    <stop offset=".2" stop-color="#e5e9f0"/>
  </linearGradient>
  <path fill="url(#a)" d="M410.984 321.404c-2.21.18-4.43.371-6.64.551-2.91.24-5.81.479-8.72.729-80.57 6.711-163.271 13.57-250.23 5.91l-8.92-10.539c39.71-4.58 81.221-6.32 122.2-6.051 16.37.1 32.66.531 48.71 1.221 13.17.57 26.19 1.311 38.97 2.209 20.41 1.441 40.2 3.262 59.07 5.352 1.861.198 3.72.409 5.56.618z"/>
  <linearGradient id="b" gradientUnits="userSpaceOnUse" x1="131.834" y1="333.438" x2="753.385" y2="333.438">
    <stop offset=".08" stop-color="#fff"/>
    <stop offset=".2" stop-color="#eceff4"/>
    <stop offset=".8" stop-color="#eceff4"/>
    <stop offset=".92" stop-color="#fff"/>
  </linearGradient>
  <path fill="url(#b)" d="M753.385 352.695c-41.84-13.381-73.299 2.068-142.07.949-4.43-.07-8.699-.221-12.83-.42-59.93-2.891-90.76-18.189-175.51-18.189-43.069 0-85.149 10.309-126.12 15.879-48.58-4.98-88.199-5.75-115.399-5.289-26.271.439-49.62 2.799-49.62 2.799l13.56-19.83c86.96 7.66 169.66.801 250.23-5.91 2.91-.25 5.81-.488 8.72-.729 2.21-.18 4.43-.371 6.64-.551 17.95-1.48 35.571-2.92 52.821-4.18 4.74-.34 9.461-.67 14.141-.98 16.689-1.119 33-2.02 48.85-2.539 10.109-.33 20.18-.5 30.131-.521 1-.01 2.01-.01 3.01-.01 12.799 0 25.389.221 37.619.611 9.131.289 18.051.68 26.701 1.129l.43.68 15.879.271c62.311 4.01 107.16 11.08 107.16 11.08l5.657 25.75z"/>
  <linearGradient id="c" gradientUnits="userSpaceOnUse" x1="296.854" y1="362.5" x2="756.166" y2="362.5">
    <stop offset=".8" stop-color="#e5e9f0"/>
    <stop offset=".92" stop-color="#fff"/>
  </linearGradient>
  <path fill="url(#c)" d="M756.166 389.965c-18.602-.27-49.771-3.57-64.551-7.07-31.041-7.359-58.98-18.369-106.18-18.369-35.32 0-64.99 9.959-104.951 16.59-19.789-2.67-40.17-6.15-60.95-10.65-44.95-9.73-86.32-15.82-122.681-19.551 40.971-5.57 83.051-15.879 126.12-15.879 84.75 0 115.581 15.299 175.51 18.189 4.131.199 8.4.35 12.83.42 68.771 1.119 100.23-14.33 142.07-.949l2.783 37.269z"/>
  <linearGradient id="d" gradientUnits="userSpaceOnUse" x1="131.834" y1="367.828" x2="480.484" y2="367.828">
    <stop offset=".08" stop-color="#fff"/>
    <stop offset=".2" stop-color="#eceff4"/>
  </linearGradient>
  <path fill="url(#d)" d="M480.484 381.115c-31.369 5.199-69.08 8.35-120.85 3.029-153.99-15.82-219.16 6-219.16 6l-8.64-41.721s23.35-2.359 49.62-2.799c27.2-.461 66.819.309 115.399 5.289 36.36 3.73 77.73 9.82 122.681 19.551 20.78 4.501 41.161 7.981 60.95 10.651z"/>
  <path d="M724.924 255.813l-.537-.055.074-.389c.115-.615.17-1.129.17-1.619 0-.961-.178-1.953-.525-2.951l-.09-.254.287-.158c1.506-.832 2.367-2.094 2.367-3.459 0-2.398-2.684-4.35-5.986-4.35-.643 0-1.291.078-1.916.232l-.602.146-.109-.451c-.4-1.639-2.348-2.826-4.633-2.826-1.787 0-3.398.73-4.207 1.91l-.154.227-.607-.02c-.094-.004-.193-.01-.293-.01-9.08 0-16.465 5.367-16.465 11.963v.461l-.623.008a9.908 9.908 0 0 0-4.475.481l-.471.162-.248-.334c-1.105-1.518-3.254-2.461-5.611-2.461-3.502 0-6.35 2.07-6.35 4.613 0 .398.074.795.217 1.186h55.401c-1.081-1.107-2.751-1.857-4.614-2.052zm-50.235-68.075c-.924 0-1.816.215-2.582.619l-.639.336-.207-.553c-.73-1.943-3.176-3.303-5.945-3.303h-.439l-.168-.309c-1.043-3.486-5.363-6.016-10.277-6.016-5.801 0-10.52 3.43-10.52 7.645 0 .344.039.703.127 1.129l.09.451-.623.002c-3.154.016-5.725 1.721-6.078 3.953h41.537c.094-.262.139-.508.139-.748 0-1.766-1.981-3.206-4.415-3.206zm-178.033 12.338h8.17c-.221-2.582-3.152-4.611-6.723-4.611-.387 0-.783.027-1.209.082l-.592.08-.047-.438c-.387-3.615-4.6-6.447-9.59-6.447-4.818 0-8.92 2.617-9.541 6.088l-.094.525-.668-.217a10.39 10.39 0 0 0-3.213-.5c-2.971 0-5.658 1.197-7.014 3.125l-.236.338-.473-.156a5.006 5.006 0 0 0-1.582-.256c-1.926 0-3.525 1.037-3.793 2.387h36.605zm-217.604 21.002c-.924 0-1.816.213-2.583.617l-.638.338-.208-.555c-.729-1.943-3.174-3.301-5.944-3.301h-.439l-.169-.309c-1.041-3.486-5.362-6.016-10.276-6.016-5.802 0-10.521 3.428-10.521 7.643 0 .344.04.703.127 1.129l.093.451-.626.004c-3.151.016-5.722 1.721-6.077 3.951h41.537a2.22 2.22 0 0 0 .139-.748c-.001-1.766-1.981-3.204-4.415-3.204zm-73.239 57.463h8.17c-.221-2.582-3.152-4.609-6.722-4.609-.389 0-.785.027-1.21.084l-.593.076-.047-.436c-.385-3.617-4.599-6.449-9.59-6.449-4.816 0-8.918 2.619-9.538 6.088l-.096.527-.668-.217a10.322 10.322 0 0 0-3.212-.502c-2.97 0-5.657 1.199-7.014 3.127l-.235.336-.475-.156a5.069 5.069 0 0 0-1.581-.254c-1.927 0-3.525 1.039-3.793 2.385h36.604zm.483-87.287l-.535-.057.072-.389a8.712 8.712 0 0 0 .169-1.619c0-.961-.177-1.953-.525-2.951l-.089-.254.286-.158c1.506-.832 2.37-2.094 2.37-3.459 0-2.398-2.686-4.35-5.986-4.35-.646 0-1.292.078-1.919.232l-.6.146-.11-.453c-.4-1.637-2.348-2.824-4.632-2.824-1.788 0-3.399.73-4.207 1.91l-.157.227-.604-.02c-.098-.004-.194-.01-.293-.01-9.08 0-16.466 5.367-16.466 11.963v.461l-.623.008a9.937 9.937 0 0 0-4.476.479l-.473.166-.244-.338c-1.106-1.516-3.257-2.459-5.613-2.459-3.501 0-6.349 2.07-6.349 4.613 0 .398.072.795.216 1.186h55.399c-1.078-1.107-2.746-1.857-4.611-2.05z" fill="#ECEFF4"/>
  <linearGradient id="e" gradientUnits="userSpaceOnUse" x1="227.554" y1="144.215" x2="692.555" y2="144.215">
    <stop offset="0" stop-color="#8fbcbb"/>
    <stop offset=".33" stop-color="#88c0d0"/>
    <stop offset=".66" stop-color="#81a1c1"/>
    <stop offset=".99" stop-color="#5e81ac"/>
  </linearGradient>
  <path fill="url(#e)" d="M692.555 136.045v26.459c0 1.121-1.119 2.031-2.5 2.031-1.379 0-2.5-.91-2.5-2.031v-2.119c0-1.131-1.119-2.041-2.5-2.041-1.379 0-2.5.91-2.5 2.041v5.18c0 1.119-1.119 2.029-2.5 2.029-1.379 0-2.5-.91-2.5-2.029v-10.1c0-1.131-1.119-2.041-2.5-2.041-1.379 0-2.5.91-2.5 2.041v9.08c0 1.119-1.119 2.029-2.5 2.029-1.379 0-2.5-.91-2.5-2.029v-5.08c0-1.121-1.119-2.031-2.5-2.031-1.379 0-2.5.91-2.5 2.031v.369c0 1.131-1.119 2.041-2.5 2.041-1.379 0-2.5-.91-2.5-2.041v-11.189c0-1.121-1.119-2.041-2.5-2.041-1.379 0-2.5.92-2.5 2.041v4.57c0 1.119-1.119 2.039-2.5 2.039-1.379 0-2.5-.92-2.5-2.039v-3.68c0-1.121-1.119-2.031-2.5-2.031-1.379 0-2.5.91-2.5 2.031v4.92c0 1.129-1.119 2.039-2.5 2.039-1.379 0-2.5-.91-2.5-2.039v-.682c0-1.119-1.119-2.039-2.5-2.039-1.379 0-2.5.92-2.5 2.039v5.49c0 1.121-1.119 2.041-2.5 2.041-1.379 0-2.5-.92-2.5-2.041v-.74c0-1.119-1.119-2.029-2.5-2.029-1.379 0-2.5.91-2.5 2.029v5.512c0 1.119-1.119 2.029-2.5 2.029-1.379 0-2.49-.9-2.5-2.02v-6.76c0-1.121-1.119-2.031-2.5-2.031-1.379 0-2.5.91-2.5 2.031v8.85c0 1.119-1.119 2.029-2.5 2.029-1.379 0-2.5-.91-2.5-2.029v-4.73c0-1.119-1.119-2.029-2.5-2.029-1.379 0-2.5.91-2.5 2.029v1.99c0 1.119-1.119 2.029-2.5 2.029-1.15 0-2.119-.629-2.41-1.49v-7.85c0-1.129-1.141-2.039-2.549-2.039-1.4 0-2.541.91-2.541 2.039v4.641c0 1.129-1.119 2.039-2.5 2.039-1.379 0-2.5-.91-2.5-2.039v-.93c0-1.121-1.119-2.031-2.5-2.031-1.379 0-2.5.91-2.5 2.031v9.189c0 1.129-1.119 2.039-2.5 2.039-1.379 0-2.5-.91-2.5-2.039v-2.07c0-1.129-1.119-2.039-2.5-2.039-1.379 0-2.5.91-2.5 2.039v6.189c0 1.131-1.119 2.041-2.5 2.041-1.379 0-2.5-.91-2.5-2.041v-12.219c-.01-1.121-1.119-2.031-2.5-2.031-1.379 0-2.5.91-2.5 2.041v6.23c0 1.119-1.119 2.029-2.5 2.029-1.379 0-2.5-.91-2.5-2.029v-8.852c0-1.129-1.119-2.039-2.5-2.039-1.379 0-2.5.91-2.5 2.039v3.721c0 1.119-1.119 2.029-2.5 2.029-1.379 0-2.5-.91-2.5-2.029v-.391c-.01-1.119-1.119-2.029-2.5-2.029-1.379 0-2.5.91-2.5 2.039v2.371c0 1.119-1.119 2.039-2.5 2.039-1.379 0-2.5-.92-2.5-2.039v-6.391c0 1.121-1.119 2.031-2.5 2.031-1.379 0-2.5-.91-2.5-2.031v-7.07c0-1.119-1.119-2.039-2.5-2.039-1.379 0-2.5.92-2.5 2.039v9.061c0 1.121-1.119 2.029-2.5 2.029-1.379 0-2.5-.908-2.5-2.029v-6.74c0-1.129-1.119-2.039-2.5-2.039-1.379 0-2.5.91-2.5 2.039v1.611c0 1.119-1.119 2.029-2.5 2.029-1.379 0-2.5-.91-2.5-2.029v-8.621c0-1.119-1.119-2.029-2.5-2.029-1.379 0-2.5.9-2.5 2.02v2.641c0 1.129-1.119 2.039-2.5 2.039-1.379 0-2.5-.91-2.5-2.039v-4.41c0-1.121-1.119-2.031-2.5-2.031-1.379 0-2.5.91-2.5 2.031v8.529c0 1.131-1.119 2.041-2.5 2.041-1.379 0-2.5-.91-2.5-2.041v-4.5c0-1.119-1.119-2.029-2.5-2.029-1.379 0-2.5.91-2.5 2.029v12.77c0 1.121-1.119 2.031-2.5 2.031-1.379 0-2.5-.91-2.5-2.041v-7.699c0-1.131-1.119-2.041-2.5-2.041-1.379 0-2.5.91-2.5 2.041v5.049c0 1.121-1.119 2.031-2.5 2.031-1.379 0-2.5-.91-2.5-2.041v-10.299c0-1.131-1.119-2.041-2.5-2.041-1.379 0-2.5.91-2.5 2.041v7.559c0 1.121-1.119 2.031-2.5 2.031-1.379 0-2.5-.91-2.5-2.031v-1.59c0-1.129-1.119-2.039-2.5-2.039-1.379 0-2.5.91-2.5 2.039v3.691c0 1.119-1.119 2.029-2.5 2.029-1.379 0-2.5-.91-2.5-2.029v-4.4c0-1.131-1.119-2.041-2.5-2.041-1.379 0-2.5.91-2.5 2.041v9.17c0 1.119-1.119 2.029-2.5 2.029-1.38 0-2.5-.91-2.5-2.029v-6.041c0-1.129-1.12-2.039-2.5-2.039s-2.5.91-2.5 2.039v10.84c0 1.131-1.12 2.041-2.5 2.041s-2.5-.91-2.5-2.041v.23c0-1.129-1.12-2.039-2.5-2.039s-2.5.91-2.5 2.039v1.02c0 1.121-1.12 2.031-2.5 2.031s-2.5-.91-2.5-2.031v-7.26c0-1.129-1.12-2.039-2.5-2.039s-2.5.91-2.5 2.039v.631c0 1.129-1.12 2.039-2.5 2.039s-2.5-.91-2.5-2.039v-8.59c0-1.131-1.12-2.041-2.5-2.041s-2.5.91-2.5 2.041v3.891c0 1.119-1.12 2.029-2.5 2.029s-2.5-.91-2.5-2.029v-1.691c0-1.119-1.12-2.029-2.5-2.029s-2.5.91-2.5 2.029v.67c0 1.121-1.12 2.041-2.5 2.041s-2.5-.92-2.5-2.041v-11.189c0-1.131-1.12-2.039-2.5-2.039s-2.5.908-2.5 2.039v14.25c0 1.119-1.12 2.039-2.5 2.039s-2.5-.92-2.5-2.039v-6.529c0 1.119-1.12 2.039-2.5 2.039s-2.5-.92-2.5-2.039v-2.371c0-1.129-1.12-2.039-2.5-2.039s-2.5.91-2.5 2.029v.391c0 1.119-1.12 2.029-2.5 2.029s-2.5-.91-2.5-2.029v-3.73c0-1.119-1.12-2.029-2.5-2.029s-2.5.91-2.5 2.029v8.859c0 1.121-1.12 2.031-2.5 2.031s-2.5-.91-2.5-2.031v-6.229c0-1.131-1.12-2.041-2.5-2.041s-2.5.91-2.5 2.029v12.221c0 1.131-1.12 2.041-2.5 2.041s-2.5-.91-2.5-2.041v-6.189c0-1.131-1.12-2.041-2.5-2.041s-2.5.91-2.5 2.041v2.07c0 1.129-1.12 2.039-2.5 2.039s-2.5-.91-2.5-2.039v-9.191c0-1.119-1.12-2.029-2.5-2.029s-2.5.91-2.5 2.029v.932c0 1.129-1.12 2.039-2.5 2.039s-2.5-.91-2.5-2.039v-4.641c0-1.131-1.14-2.041-2.55-2.041-1.4 0-2.54.91-2.54 2.041v7.85c-.3.859-1.26 1.49-2.41 1.49-1.38 0-2.5-.91-2.5-2.029v-1.99c0-1.121-1.12-2.031-2.5-2.031s-2.5.91-2.5 2.031v4.729c0 1.121-1.12 2.031-2.5 2.031s-2.5-.91-2.5-2.031v-8.85c0-1.119-1.12-2.029-2.5-2.029s-2.5.91-2.5 2.029v6.76c-.01 1.121-1.13 2.021-2.5 2.021-1.38 0-2.5-.91-2.5-2.031v-5.51c0-1.119-1.12-2.029-2.5-2.029s-2.5.91-2.5 2.029v.74c0 1.119-1.12 2.039-2.5 2.039s-2.5-.92-2.5-2.039v-5.49c0-1.119-1.12-2.039-2.5-2.039s-2.5.92-2.5 2.039v.68c0 1.131-1.12 2.041-2.5 2.041s-2.5-.91-2.5-2.041v-4.92c0-1.119-1.12-2.029-2.5-2.029s-2.5.91-2.5 2.029v3.68c0 1.121-1.12 2.041-2.5 2.041s-2.5-.92-2.5-2.041v-4.568c0-1.121-1.12-2.041-2.5-2.041s-2.5.92-2.5 2.041v11.189c0 1.129-1.12 2.039-2.5 2.039s-2.5-.91-2.5-2.039v-.371c0-1.119-1.12-2.029-2.5-2.029s-2.5.91-2.5 2.029v5.08c0 1.121-1.12 2.031-2.5 2.031s-2.5-.91-2.5-2.031v-9.08c0-1.129-1.12-2.039-2.5-2.039s-2.5.91-2.5 2.039v10.102c0 1.119-1.12 2.029-2.5 2.029s-2.5-.91-2.5-2.029v-5.182c0-1.129-1.12-2.039-2.5-2.039s-2.5.91-2.5 2.039v2.121c0 1.119-1.12 2.029-2.5 2.029s-2.5-.91-2.5-2.029v-26.461c0-1.119 1.12-2.039 2.5-2.039s2.5.92 2.5 2.039v14.25c0 1.131 1.12 2.041 2.5 2.041s2.5-.91 2.5-2.041v-11.189c0-1.119 1.12-2.029 2.5-2.029s2.5.91 2.5 2.029v.67c0 1.121 1.12 2.041 2.5 2.041s2.5-.92 2.5-2.041v-1.689c0-1.121 1.12-2.031 2.5-2.031s2.5.91 2.5 2.031v3.9c0 1.119 1.12 2.029 2.5 2.029s2.5-.91 2.5-2.029v-8.602c0-1.129 1.12-2.039 2.5-2.039s2.5.91 2.5 2.039v.631c0 1.131 1.12 2.039 2.5 2.039s2.5-.908 2.5-2.039v-7.25c0-1.131 1.12-2.039 2.5-2.039s2.5.908 2.5 2.039v1.01c0 1.131 1.12 2.041 2.5 2.041s2.5-.91 2.5-2.041v.23c0-1.131 1.12-2.041 2.5-2.041s2.5.91 2.5 2.041v10.85c0 1.121 1.12 2.029 2.5 2.029s2.5-.908 2.5-2.029v-6.051c0-1.119 1.12-2.029 2.5-2.029s2.5.91 2.5 2.029v9.182c0 1.119 1.12 2.029 2.5 2.029s2.5-.91 2.5-2.029v-4.41c0-1.121 1.12-2.031 2.5-2.031s2.5.91 2.5 2.031v3.689c0 1.131 1.12 2.039 2.5 2.039s2.5-.908 2.5-2.039v-1.59c0-1.121 1.12-2.029 2.5-2.029s2.5.908 2.5 2.029v7.561c0 1.129 1.12 2.039 2.5 2.039s2.5-.91 2.5-2.039v-10.301c0-1.119 1.12-2.029 2.5-2.029s2.49.898 2.5 2.029v5.051c0 1.119 1.12 2.029 2.5 2.029s2.5-.91 2.5-2.029v-7.711c0-1.129 1.12-2.039 2.5-2.039s2.5.91 2.5 2.029v12.77c0 1.121 1.12 2.041 2.5 2.041s2.5-.91 2.5-2.041v-4.5c0-1.129 1.12-2.039 2.5-2.039s2.5.91 2.5 2.039v8.531c0 1.119 1.12 2.029 2.5 2.029s2.5-.91 2.5-2.029v-4.41c0-1.131 1.12-2.041 2.5-2.041s2.5.91 2.5 2.041v2.639c0 1.121 1.12 2.021 2.5 2.021s2.5-.91 2.5-2.031v-8.619c0-1.121 1.12-2.031 2.5-2.031s2.5.91 2.5 2.031v1.609c0 1.131 1.12 2.041 2.5 2.041s2.5-.91 2.5-2.041v-6.74c0-1.119 1.12-2.029 2.5-2.029s2.5.91 2.5 2.029v9.061c0 1.131 1.12 2.039 2.5 2.039s2.5-.908 2.5-2.039v-7.07c0-1.119 1.12-2.029 2.5-2.029s2.5.91 2.5 2.029v6.541c0-1.131 1.12-2.041 2.5-2.041s2.5.91 2.5 2.041v2.119c0 1.119 1.12 2.029 2.5 2.029s2.5-.91 2.5-2.029v-5.18c0-1.131 1.12-2.041 2.5-2.041s2.5.91 2.5 2.041v10.09c0 1.131 1.12 2.039 2.5 2.039s2.5-.908 2.5-2.039v-9.08c0-1.119 1.12-2.029 2.5-2.029s2.5.91 2.5 2.029v5.08c0 1.119 1.12 2.029 2.5 2.029s2.5-.91 2.5-2.029v-.369c0-1.131 1.12-2.041 2.5-2.041s2.5.91 2.5 2.041v11.189c0 1.129 1.12 2.039 2.5 2.039s2.5-.91 2.5-2.039v-4.57c0-1.119 1.12-2.029 2.5-2.029s2.5.91 2.5 2.029v3.68c0 1.121 1.12 2.041 2.5 2.041s2.5-.92 2.5-2.041v-4.92c0-1.129 1.12-2.039 2.5-2.039s2.5.91 2.5 2.039v.68c0 1.121 1.12 2.041 2.5 2.041s2.5-.92 2.5-2.041v-5.49c0-1.119 1.12-2.029 2.5-2.029 1.381 0 2.5.91 2.5 2.029v.74c0 1.121 1.121 2.031 2.5 2.031 1.381 0 2.5-.91 2.5-2.031v-5.51c0-1.119 1.121-2.029 2.5-2.029 1.381 0 2.49.9 2.5 2.02v6.76c0 1.121 1.121 2.041 2.5 2.041 1.381 0 2.5-.92 2.5-2.041v-8.85c0-1.121 1.121-2.029 2.5-2.029 1.381 0 2.5.908 2.5 2.029v4.73c0 1.119 1.121 2.029 2.5 2.029 1.381 0 2.5-.91 2.5-2.029v-1.98c0-1.131 1.121-2.041 2.5-2.041 1.15 0 2.109.631 2.41 1.49v7.852c0 1.129 1.141 2.039 2.539 2.039 1.41 0 2.551-.91 2.551-2.039v-4.641c0-1.131 1.121-2.041 2.5-2.041 1.381 0 2.5.91 2.5 2.041v.93c0 1.119 1.121 2.029 2.5 2.029 1.381 0 2.5-.91 2.5-2.029v-9.189c0-1.131 1.121-2.041 2.5-2.041 1.381 0 2.5.91 2.5 2.041v2.07c0 1.129 1.121 2.039 2.5 2.039 1.381 0 2.5-.91 2.5-2.039v-6.191c0-1.129 1.121-2.039 2.5-2.039 1.381 0 2.5.91 2.5 2.039v12.23c0 1.109 1.121 2.02 2.5 2.02 1.381 0 2.5-.91 2.5-2.029V128c0-1.119 1.121-2.029 2.5-2.029 1.381 0 2.5.91 2.5 2.029v8.859c0 1.121 1.121 2.031 2.5 2.031 1.381 0 2.5-.91 2.5-2.031v-3.729c0-1.121 1.121-2.031 2.5-2.031 1.381 0 2.5.91 2.5 2.031v.398c0 1.111 1.121 2.021 2.5 2.021 1.381 0 2.5-.91 2.5-2.041v-2.369c0-1.121 1.121-2.031 2.5-2.031 1.381 0 2.5.91 2.5 2.031v6.389c0-1.119 1.121-2.029 2.5-2.029 1.381 0 2.5.91 2.5 2.029v7.07c0 1.131 1.121 2.041 2.5 2.041 1.381 0 2.5-.91 2.5-2.041v-9.059c0-1.121 1.121-2.031 2.5-2.031 1.381 0 2.5.91 2.5 2.031v6.738c0 1.131 1.121 2.041 2.5 2.041 1.381 0 2.5-.91 2.5-2.041v-1.609c0-1.119 1.121-2.029 2.5-2.029 1.381 0 2.5.91 2.5 2.029v8.621c0 1.119 1.121 2.029 2.5 2.029 1.381 0 2.49-.9 2.5-2.02v-2.641c0-1.131 1.121-2.041 2.5-2.041 1.381 0 2.5.91 2.5 2.041v4.41c0 1.119 1.121 2.029 2.5 2.029 1.381 0 2.5-.91 2.5-2.029v-8.529c0-1.131 1.121-2.041 2.5-2.041 1.381 0 2.5.91 2.5 2.041v4.5c0 1.129 1.121 2.029 2.5 2.029 1.381 0 2.5-.91 2.5-2.029v-12.762c0-1.129 1.121-2.039 2.5-2.039 1.381 0 2.5.91 2.5 2.039v7.711c0 1.119 1.121 2.029 2.5 2.029 1.381 0 2.5-.91 2.5-2.029v-5.051c0-1.129 1.121-2.029 2.5-2.029 1.381 0 2.5.91 2.5 2.029v10.301c0 1.129 1.121 2.039 2.5 2.039 1.381 0 2.5-.91 2.5-2.039v-7.561c0-1.119 1.121-2.029 2.5-2.029 1.381 0 2.5.91 2.5 2.029v1.59c0 1.131 1.121 2.041 2.5 2.041 1.381 0 2.5-.91 2.5-2.041v-3.689c0-1.119 1.121-2.029 2.5-2.029 1.381 0 2.5.91 2.5 2.029v4.41c0 1.119 1.121 2.029 2.5 2.029 1.381 0 2.5-.91 2.5-2.029v-9.18c0-1.121 1.121-2.031 2.5-2.031 1.381 0 2.5.91 2.5 2.031v6.049c0 1.121 1.121 2.031 2.5 2.031 1.381 0 2.5-.91 2.5-2.031v-10.85c0-1.129 1.121-2.039 2.5-2.039 1.381 0 2.5.91 2.5 2.039v-.23c0 1.131 1.121 2.041 2.5 2.041 1.381 0 2.5-.91 2.5-2.041v-1.01c0-1.129 1.121-2.039 2.5-2.039 1.381 0 2.5.91 2.5 2.039v7.25c0 1.131 1.121 2.041 2.5 2.041 1.381 0 2.5-.91 2.5-2.041v-.629c0-1.131 1.121-2.041 2.5-2.041 1.381 0 2.5.91 2.5 2.041v8.6c0 1.119 1.121 2.029 2.5 2.029 1.381 0 2.5-.91 2.5-2.029v-3.9c0-1.119 1.121-2.029 2.5-2.029 1.381 0 2.5.91 2.5 2.029v1.689c0 1.121 1.121 2.041 2.5 2.041 1.381 0 2.5-.92 2.5-2.041v-.67c0-1.119 1.121-2.029 2.5-2.029 1.381 0 2.5.91 2.5 2.029v11.191c0 1.129 1.121 2.039 2.5 2.039 1.381 0 2.5-.91 2.5-2.039v-14.25c0-1.121 1.121-2.041 2.5-2.041 1.381-.002 2.5.918 2.5 2.039z"/>
  <g fill="none" stroke="#4C566A" stroke-width="2" stroke-miterlimit="10">
    <path d="M617.188 285.064l-4.371 5.99-6.35-11.621-4.77 14.711-7.93-16.16-5.23 6.35s-1.291-4.709-2.5-9.51l11.689-15.41 19.462 25.65zm-35.25-4.839l4.1-5.4m54.528 41.04l-23.379-30.801m-54.871-46.99l-5.16 13.43-11.949-24.879-6.881 12.699-8.059-19.789-11.121 31.969-3.561-16.119 22.74-48.85 23.991 51.539zm-55.939 17.09l9.209-19.779m81.971 78.4l-15.619-33.561-19.621-42.15m-52.35 20.971v.01l-2.721 5.66-13.398-13.211-7.66 7.91-4.102-7.109-15.09 12.41-2.09-8.371 21.281-23.049 20.189 21.869 3.591 3.881zm49.971 54.129l-1.65-1.779-48.32-52.34m-45.062-2.711l-22.49 24.371m-87.54-48.551l-26.35 44.98m88.051-40.55l25.84 44.121 21.39 36.51m-79.38-135.51l-29.55 50.449 5.07 20.031 8.21-21.67 3.59 8.908 12.68-19.209 8.39 22.67 5.6-15.01 13.07 16.74 5.09-8.031-32.15-54.878zm-65.151 75.56l-5.25 13.449-8.83-26.59-6.72 20.199-2.99-13.209-6.72 19.6s-1.9-6.449-4.17-14.41v-.01l17.12-36.77 17.56 37.741zm27.08 58.159l-17.83-38.289-9.25-19.869m-34.679-.962l-25.92 55.689" stroke-linejoin="round"/>
    <g stroke-linecap="round">
      <path d="M410.987 321.404c-1.841-.211-3.702-.416-5.562-.621a1489.99 1489.99 0 0 0-59.073-5.346 1443.153 1443.153 0 0 0-38.963-2.209 1330.718 1330.718 0 0 0-48.71-1.227c-40.986-.266-82.495 1.475-122.203 6.051"/>
      <path d="M145.4 328.598c86.954 7.66 169.659.797 250.229-5.918l8.714-.725c2.216-.184 4.431-.369 6.644-.551 17.953-1.484 35.567-2.92 52.819-4.176 4.744-.346 9.459-.674 14.143-.988 16.684-1.115 33.002-2.018 48.844-2.535 10.117-.332 20.186-.496 30.137-.523 1.002-.004 2.004-.006 3.004-.006 12.803-.002 25.395.221 37.623.611 14.979.479 29.408 1.207 43.008 2.08 62.313 4.01 107.162 11.076 107.162 11.076m-450.873 23.971c40.972-5.572 83.053-15.879 126.12-15.879 84.752 0 115.584 15.303 175.512 18.193 4.131.199 8.396.342 12.83.414 68.77 1.119 100.229-14.332 142.066-.949"/>
      <path d="M480.482 381.109c-19.787-2.664-40.165-6.146-60.945-10.643-44.953-9.729-86.322-15.822-122.683-19.553-48.579-4.984-88.195-5.746-115.396-5.289-26.27.443-49.622 2.803-49.622 2.803"/>
      <path d="M756.164 389.959c-18.6-.268-49.768-3.563-64.545-7.066-31.047-7.359-58.98-18.369-106.182-18.369-35.316 0-64.988 9.957-104.955 16.586-31.367 5.205-69.076 8.357-120.841 3.037-153.994-15.824-219.165 5.996-219.165 5.996"/>
    </g>
    <path d="M715.826 257.865h-41.688a3.436 3.436 0 0 1-.217-1.186c0-2.543 2.848-4.613 6.35-4.613 2.357 0 4.506.943 5.611 2.461l.248.334.471-.162a9.91 9.91 0 0 1 4.475-.481l.623-.008v-.461c0-6.596 7.385-11.963 16.465-11.963.1 0 .199.006.293.01l.607.02.154-.227c.809-1.18 2.42-1.91 4.207-1.91 2.285 0 4.232 1.188 4.633 2.826l.109.451.602-.146a8.037 8.037 0 0 1 1.916-.232c3.303 0 5.986 1.951 5.986 4.35 0 1.365-.861 2.627-2.367 3.459l-.287.158.09.254c.348.998.525 1.99.525 2.951 0 .49-.055 1.004-.17 1.619l-.074.389.537.055c1.863.195 3.533.945 4.613 2.053h-13.712zm-54.56-66.172H637.43c.354-2.232 2.924-3.938 6.078-3.953l.623-.002-.09-.451a5.491 5.491 0 0 1-.127-1.129c0-4.215 4.719-7.645 10.52-7.645 4.914 0 9.234 2.529 10.277 6.016l.168.309h.439c2.77 0 5.215 1.359 5.945 3.303l.207.553.639-.336a5.548 5.548 0 0 1 2.582-.619c2.434 0 4.414 1.439 4.414 3.207 0 .24-.045.486-.139.748h-17.7zm-197.418 5.996c.539 0 1.07.086 1.582.256l.473.156.236-.338c1.355-1.928 4.043-3.125 7.014-3.125 1.109 0 2.189.168 3.213.5l.668.217.094-.525c.621-3.471 4.723-6.088 9.541-6.088 4.99 0 9.203 2.832 9.59 6.447l.047.438.592-.08a9.374 9.374 0 0 1 1.209-.082c3.57 0 6.502 2.029 6.723 4.611h-44.774c.266-1.349 1.866-2.387 3.792-2.387zm-198.219 27.342h-23.836c.355-2.23 2.925-3.936 6.077-3.951l.626-.004-.092-.451a5.561 5.561 0 0 1-.127-1.129c0-4.215 4.719-7.643 10.521-7.643 4.914 0 9.235 2.529 10.276 6.016l.169.309h.439c2.771 0 5.216 1.357 5.945 3.301l.208.555.638-.338a5.554 5.554 0 0 1 2.583-.617c2.434 0 4.415 1.438 4.415 3.205 0 .24-.046.486-.139.748h-17.703zm-92.624 51.125c.537 0 1.069.086 1.581.254l.475.156.236-.336c1.356-1.928 4.043-3.127 7.013-3.127 1.109 0 2.189.168 3.212.502l.668.217.096-.527c.621-3.469 4.722-6.088 9.539-6.088 4.991 0 9.205 2.832 9.59 6.449l.047.436.592-.076a9.024 9.024 0 0 1 1.21-.084c3.569 0 6.5 2.027 6.722 4.609h-44.773c.267-1.346 1.866-2.385 3.792-2.385zm24.196-82.851h-41.689a3.412 3.412 0 0 1-.216-1.186c0-2.543 2.848-4.613 6.349-4.613 2.356 0 4.507.943 5.613 2.459l.245.338.472-.166a9.937 9.937 0 0 1 4.476-.479l.623-.008v-.461c0-6.596 7.386-11.963 16.465-11.963.099 0 .196.006.293.01l.604.02.157-.227c.807-1.18 2.419-1.91 4.207-1.91 2.285 0 4.232 1.188 4.632 2.824l.11.453.599-.146a8.056 8.056 0 0 1 1.919-.232c3.301 0 5.986 1.951 5.986 4.35 0 1.365-.864 2.627-2.37 3.459l-.287.158.089.254c.349.998.526 1.99.526 2.951 0 .488-.054 1.004-.169 1.619l-.073.389.535.057c1.865.193 3.533.943 4.613 2.051h-13.709zm259.543 38.527h6.82m-128.91-18.549h15.653m-175.714 20.006h23.059m5.764 0h5.188m464.945-12.18h17.295m2.113 0h6.725m-121.278-16.416h20.813m3.935 0h7.998m-414.108 91.221h34.011m6.917 0h7.646m409.398-48.113h-21.983m-4.263 0h-7.495m104.731 48.705h-21.983m-4.263 0h-7.494m-259.438-64.674h19.166" stroke-linecap="round" stroke-linejoin="round"/>
    <path d="M690.057 134.01c-1.381 0-2.5.91-2.5 2.035v14.252c0 1.125-1.119 2.035-2.5 2.035s-2.5-.91-2.5-2.035v-11.191c0-1.125-1.119-2.035-2.5-2.035s-2.5.91-2.5 2.035v.67c0 1.123-1.119 2.035-2.5 2.035s-2.5-.912-2.5-2.035v-1.688c0-1.125-1.119-2.035-2.5-2.035s-2.5.91-2.5 2.035v3.893c0 1.123-1.119 2.035-2.5 2.035s-2.5-.912-2.5-2.035v-8.6c0-1.123-1.119-2.035-2.5-2.035s-2.5.912-2.5 2.035v.637c0 1.123-1.119 2.035-2.5 2.035s-2.5-.912-2.5-2.035v-7.258c0-1.125-1.119-2.035-2.5-2.035s-2.5.91-2.5 2.035v1.018c0 1.123-1.119 2.035-2.5 2.035s-2.5-.912-2.5-2.035v.225c0-1.123-1.119-2.035-2.5-2.035s-2.5.912-2.5 2.035v10.848c0 1.125-1.119 2.035-2.5 2.035s-2.5-.91-2.5-2.035v-6.041c0-1.123-1.119-2.035-2.5-2.035s-2.5.912-2.5 2.035v9.172c0 1.123-1.119 2.035-2.5 2.035s-2.5-.912-2.5-2.035v-4.402c0-1.123-1.119-2.035-2.5-2.035s-2.5.912-2.5 2.035v3.689c0 1.123-1.119 2.035-2.5 2.035s-2.5-.912-2.5-2.035v-1.59c0-1.125-1.119-2.035-2.5-2.035s-2.5.91-2.5 2.035v7.559c0 1.125-1.119 2.035-2.5 2.035s-2.5-.91-2.5-2.035v-10.303c0-1.123-1.119-2.033-2.5-2.033-1.379 0-2.496.908-2.5 2.029v5.051c0 1.123-1.119 2.035-2.5 2.035s-2.5-.912-2.5-2.035v-7.709c0-1.123-1.119-2.035-2.5-2.035s-2.498.91-2.5 2.033v12.766c0 1.123-1.119 2.033-2.5 2.033s-2.498-.908-2.5-2.031v-4.506c0-1.123-1.119-2.035-2.5-2.035s-2.5.912-2.5 2.035v8.531c0 1.123-1.119 2.035-2.5 2.035s-2.5-.912-2.5-2.035v-4.41c0-1.123-1.119-2.035-2.5-2.035s-2.5.912-2.5 2.035v2.639c-.008 1.119-1.123 2.025-2.5 2.025-1.381 0-2.5-.912-2.5-2.035v-8.615c0-1.123-1.119-2.035-2.5-2.035s-2.5.912-2.5 2.035v1.611c0 1.123-1.119 2.035-2.5 2.035s-2.5-.912-2.5-2.035v-6.74c0-1.125-1.119-2.035-2.5-2.035s-2.5.91-2.5 2.035v9.059c0 1.125-1.119 2.035-2.5 2.035s-2.5-.91-2.5-2.035v-7.066c0-1.125-1.119-2.035-2.5-2.035s-2.5.91-2.5 2.035v-6.395c0-1.123-1.119-2.035-2.5-2.035s-2.5.912-2.5 2.035v2.375c0 1.123-1.121 2.035-2.502 2.035-1.375 0-2.492-.906-2.498-2.025v-.393c0-1.123-1.121-2.035-2.5-2.035-1.381 0-2.5.912-2.5 2.035v3.723c0 1.125-1.119 2.035-2.5 2.035s-2.5-.91-2.5-2.035V128c0-1.125-1.119-2.035-2.5-2.035s-2.5.91-2.5 2.035v6.232c0 1.123-1.119 2.035-2.502 2.035-1.375 0-2.492-.906-2.498-2.025v-12.229c0-1.125-1.119-2.035-2.5-2.035s-2.5.91-2.5 2.035v6.197c0 1.125-1.119 2.035-2.5 2.035s-2.5-.91-2.5-2.035v-2.076c0-1.125-1.119-2.035-2.5-2.035s-2.5.91-2.5 2.035v9.191c0 1.123-1.119 2.035-2.5 2.035s-2.5-.912-2.5-2.035v-.932c0-1.123-1.119-2.035-2.5-2.035s-2.5.912-2.5 2.035v4.645c0 1.123-1.141 2.035-2.547 2.035s-2.547-.912-2.547-2.035v-7.85c-.291-.859-1.258-1.492-2.406-1.492-1.381 0-2.5.91-2.5 2.033v1.984c0 1.125-1.121 2.035-2.5 2.035-1.381 0-2.5-.91-2.5-2.035v-4.727c0-1.123-1.121-2.035-2.5-2.035-1.381 0-2.5.912-2.5 2.035v-1.115l-.002-.01v9.973c0 1.125-1.119 2.035-2.5 2.035s-2.5-.91-2.5-2.035v-6.758c-.006-1.119-1.123-2.025-2.498-2.025-1.381 0-2.5.91-2.5 2.035v5.506c0 1.123-1.121 2.035-2.5 2.035-1.381 0-2.5-.912-2.5-2.035v-.736c0-1.125-1.121-2.035-2.502-2.035-1.38 0-2.5.91-2.5 2.035v5.49c0 1.123-1.12 2.035-2.5 2.035-1.381 0-2.5-.912-2.5-2.035v-.684c0-1.125-1.12-2.035-2.5-2.035-1.381 0-2.5.91-2.5 2.035v4.924c0 1.123-1.119 2.035-2.5 2.035-1.38 0-2.5-.912-2.5-2.035v-3.682c0-1.123-1.119-2.035-2.5-2.035-1.38 0-2.5.912-2.5 2.035v4.57c0 1.125-1.119 2.035-2.5 2.035-1.38 0-2.5-.91-2.5-2.035v-11.191c0-1.125-1.119-2.035-2.5-2.035-1.38 0-2.5.91-2.5 2.035v.367c0 1.125-1.119 2.035-2.5 2.035-1.38 0-2.5-.91-2.5-2.035v-5.074c0-1.123-1.119-2.035-2.5-2.035-1.38 0-2.5.912-2.5 2.035v9.082c0 1.123-1.119 2.035-2.5 2.035-1.38 0-2.5-.912-2.5-2.035v-10.1c0-1.123-1.119-2.035-2.5-2.035-1.38 0-2.5.912-2.5 2.035v5.182c0 1.123-1.119 2.035-2.5 2.035-1.38 0-2.5-.912-2.5-2.035v-2.121c0-1.123-1.119-2.035-2.5-2.035-1.38 0-2.5.912-2.5 2.035v-6.529c0-1.125-1.119-2.035-2.5-2.035s-2.5.91-2.5 2.035v7.066c0 1.123-1.12 2.035-2.5 2.035-1.381 0-2.5-.912-2.5-2.035v-9.061c0-1.123-1.12-2.035-2.5-2.035-1.381 0-2.5.912-2.5 2.035v6.742c0 1.123-1.119 2.035-2.5 2.035-1.38 0-2.5-.912-2.5-2.035v-1.611c0-1.125-1.119-2.035-2.5-2.035-1.38 0-2.5.91-2.5 2.035v8.615c0 1.123-1.12 2.035-2.5 2.035-1.377 0-2.494-.906-2.5-2.025v-2.639c0-1.125-1.119-2.035-2.5-2.035-1.38 0-2.5.91-2.5 2.035v4.408c0 1.125-1.119 2.035-2.5 2.035-1.38 0-2.5-.91-2.5-2.035v-8.529c0-1.123-1.119-2.035-2.5-2.035-1.38 0-2.5.912-2.5 2.035v4.506c-.002 1.121-1.121 2.031-2.5 2.031-1.38 0-2.5-.91-2.5-2.035v-12.766c-.002-1.121-1.121-2.031-2.5-2.031-1.38 0-2.5.91-2.5 2.035v7.707c0 1.125-1.119 2.035-2.5 2.035s-2.5-.91-2.5-2.035v-5.049c-.003-1.121-1.121-2.031-2.5-2.031-1.38 0-2.5.912-2.5 2.035v10.303c0 1.123-1.119 2.035-2.5 2.035-1.38 0-2.5-.912-2.5-2.035v-7.561c0-1.123-1.119-2.035-2.5-2.035-1.38 0-2.5.912-2.5 2.035v1.59c0 1.125-1.119 2.035-2.5 2.035-1.38 0-2.5-.91-2.5-2.035v-3.688c0-1.123-1.119-2.035-2.5-2.035-1.38 0-2.5.912-2.5 2.035v4.4c0 1.125-1.119 2.035-2.5 2.035-1.38 0-2.5-.91-2.5-2.035v-9.17c0-1.125-1.119-2.035-2.5-2.035-1.38 0-2.5.91-2.5 2.035v6.041c0 1.125-1.119 2.035-2.5 2.035s-2.5-.91-2.5-2.035V116.56c0-1.123-1.119-2.035-2.5-2.035s-2.5.912-2.5 2.035v-.227c0 1.125-1.12 2.035-2.5 2.035s-2.5-.91-2.5-2.035v-1.016c0-1.125-1.12-2.035-2.5-2.035s-2.5.91-2.5 2.035v7.258c0 1.123-1.12 2.033-2.5 2.033s-2.5-.91-2.5-2.033v-.637c0-1.125-1.12-2.035-2.5-2.035s-2.5.91-2.5 2.035v8.598c0 1.125-1.12 2.035-2.5 2.035s-2.5-.91-2.5-2.035v-3.893c0-1.123-1.12-2.035-2.5-2.035s-2.5.912-2.5 2.035v1.689c0 1.123-1.12 2.033-2.5 2.033s-2.5-.91-2.5-2.033v-.672c0-1.123-1.12-2.035-2.5-2.035s-2.5.912-2.5 2.035v11.193c0 1.123-1.12 2.035-2.5 2.035s-2.5-.912-2.5-2.035v-14.254c0-1.123-1.12-2.035-2.5-2.035s-2.5.912-2.5 2.035v26.457c0 1.123 1.12 2.035 2.5 2.035s2.5-.912 2.5-2.035v-2.121c0-1.123 1.12-2.035 2.5-2.035s2.5.912 2.5 2.035v5.182c0 1.123 1.12 2.035 2.5 2.035s2.5-.912 2.5-2.035v-10.1c0-1.123 1.12-2.035 2.5-2.035s2.5.912 2.5 2.035v9.082c0 1.123 1.12 2.035 2.5 2.035s2.5-.912 2.5-2.035v-5.074c0-1.125 1.12-2.035 2.5-2.035s2.5.91 2.5 2.035v.367c0 1.125 1.12 2.035 2.5 2.035s2.5-.91 2.5-2.035v-11.193c0-1.123 1.12-2.033 2.5-2.033s2.5.91 2.5 2.033v4.572c0 1.123 1.12 2.035 2.5 2.035s2.5-.912 2.5-2.035v-3.682c0-1.123 1.12-2.035 2.5-2.035s2.5.912 2.5 2.035v4.924c0 1.125 1.119 2.035 2.5 2.035s2.5-.91 2.5-2.035v-.684c0-1.123 1.119-2.035 2.5-2.035s2.5.912 2.5 2.035v5.49c0 1.125 1.119 2.035 2.5 2.035s2.5-.91 2.5-2.035v-.736c0-1.123 1.12-2.035 2.5-2.035 1.381 0 2.5.912 2.5 2.035v5.506c0 1.125 1.12 2.035 2.5 2.035 1.376 0 2.493-.906 2.5-2.025v-6.758c0-1.125 1.12-2.035 2.5-2.035s2.5.91 2.5 2.035v9.963-1.115c0 1.123 1.12 2.035 2.5 2.035 1.381 0 2.5-.912 2.5-2.035v-4.729c0-1.123 1.12-2.035 2.5-2.035 1.381 0 2.5.912 2.5 2.035v1.986c0 1.123 1.12 2.033 2.5 2.033 1.15 0 2.116-.633 2.408-1.492v-7.85c0-1.123 1.14-2.035 2.545-2.035 1.406 0 2.546.912 2.546 2.035v4.645c0 1.123 1.12 2.035 2.5 2.035 1.381 0 2.5-.912 2.5-2.035v-.932c0-1.123 1.12-2.035 2.5-2.035 1.381 0 2.5.912 2.5 2.035v9.191c0 1.125 1.12 2.035 2.5 2.035 1.381 0 2.5-.91 2.5-2.035v-2.076c0-1.125 1.12-2.035 2.5-2.035 1.381 0 2.5.91 2.5 2.035v6.197c0 1.123 1.12 2.035 2.5 2.035 1.381 0 2.5-.912 2.5-2.035v-12.229c.006-1.119 1.123-2.025 2.5-2.025 1.381 0 2.5.912 2.5 2.035v6.232c0 1.123 1.12 2.035 2.5 2.035 1.381 0 2.5-.912 2.5-2.035v-8.854c0-1.123 1.12-2.033 2.5-2.033 1.381 0 2.5.91 2.5 2.033v3.725c0 1.123 1.119 2.035 2.5 2.035 1.38 0 2.5-.912 2.5-2.035v-.393c.006-1.119 1.123-2.025 2.5-2.025 1.38 0 2.5.912 2.5 2.035v2.375c0 1.123 1.119 2.035 2.5 2.035s2.5-.912 2.5-2.035v6.531c0 1.123 1.12 2.033 2.5 2.033 1.381 0 2.5-.91 2.5-2.033v-14.254c0-1.123 1.12-2.035 2.5-2.035 1.381 0 2.5.912 2.5 2.035v11.193c0 1.123 1.12 2.035 2.5 2.035 1.381 0 2.5-.912 2.5-2.035v-.672c0-1.123 1.12-2.033 2.5-2.033 1.381 0 2.5.91 2.5 2.033v1.689c0 1.123 1.12 2.035 2.5 2.035 1.381 0 2.5-.912 2.5-2.035v-3.893c0-1.125 1.12-2.035 2.5-2.035 1.381 0 2.5.91 2.5 2.035v8.598c0 1.123 1.12 2.035 2.5 2.035 1.381 0 2.5-.912 2.5-2.035v-.637c0-1.123 1.12-2.033 2.5-2.033 1.381 0 2.5.91 2.5 2.033v7.258c0 1.125 1.12 2.035 2.5 2.035 1.381 0 2.5-.91 2.5-2.035v-1.018c0-1.123 1.12-2.035 2.5-2.035s2.5.912 2.5 2.035v-.225c0 1.123 1.119 2.035 2.5 2.035 1.38 0 2.5-.912 2.5-2.035V156.27c0-1.125 1.119-2.035 2.5-2.035 1.38 0 2.5.91 2.5 2.035v6.041c0 1.123 1.119 2.035 2.5 2.035s2.502-.912 2.502-2.035v-9.17c0-1.125 1.119-2.035 2.5-2.035 1.379 0 2.5.91 2.5 2.035v4.4c0 1.123 1.119 2.035 2.5 2.035 1.379 0 2.5-.912 2.5-2.035v-3.688c0-1.125 1.119-2.035 2.5-2.035 1.379 0 2.5.91 2.5 2.035v1.59c0 1.123 1.119 2.035 2.5 2.035 1.379 0 2.5-.912 2.5-2.035v-7.561c0-1.125 1.119-2.035 2.5-2.035 1.379 0 2.5.91 2.5 2.035v10.303c0 1.123 1.119 2.035 2.5 2.035 1.377 0 2.496-.91 2.498-2.031v-5.049c0-1.125 1.119-2.035 2.5-2.035s2.502.91 2.502 2.035v7.707c0 1.125 1.119 2.035 2.5 2.035 1.379 0 2.498-.91 2.498-2.033v-12.764c0-1.125 1.121-2.035 2.502-2.035 1.379 0 2.498.91 2.5 2.031v4.506c0 1.123 1.119 2.035 2.5 2.035s2.5-.912 2.5-2.035v-8.529c0-1.125 1.119-2.035 2.5-2.035s2.5.91 2.5 2.035v4.408c0 1.123 1.119 2.035 2.5 2.035s2.5-.912 2.5-2.035v-2.639c.006-1.119 1.123-2.025 2.5-2.025 1.379 0 2.5.912 2.5 2.035v8.615c0 1.123 1.119 2.035 2.5 2.035s2.5-.912 2.5-2.035v-1.611c0-1.123 1.119-2.035 2.5-2.035s2.5.912 2.5 2.035v6.74c0 1.125 1.119 2.035 2.5 2.035 1.379 0 2.5-.91 2.5-2.035v-9.059c0-1.123 1.119-2.035 2.5-2.035 1.379 0 2.5.912 2.5 2.035v7.066c0 1.125 1.119 2.035 2.5 2.035s2.5-.91 2.5-2.035v6.395c0 1.123 1.119 2.035 2.5 2.035s2.5-.912 2.5-2.035v-2.375c0-1.123 1.119-2.035 2.5-2.035 1.377 0 2.494.906 2.5 2.025v.393c0 1.123 1.119 2.035 2.5 2.035s2.5-.912 2.5-2.035v-3.723c0-1.125 1.119-2.035 2.5-2.035s2.5.91 2.5 2.035v8.852c0 1.125 1.119 2.035 2.5 2.035s2.5-.91 2.5-2.035v-6.232c0-1.123 1.119-2.033 2.5-2.033 1.377 0 2.492.904 2.5 2.023v12.229c0 1.125 1.119 2.035 2.5 2.035s2.5-.91 2.5-2.035v-6.197c0-1.123 1.119-2.035 2.5-2.035s2.5.912 2.5 2.035v2.078c0 1.123 1.119 2.033 2.5 2.033s2.5-.91 2.5-2.033v-9.193c0-1.123 1.119-2.035 2.5-2.035s2.5.912 2.5 2.035v.932c0 1.125 1.119 2.035 2.5 2.035s2.5-.91 2.5-2.035v-4.645c0-1.123 1.139-2.035 2.545-2.035s2.547.912 2.547 2.035v7.85c.291.859 1.258 1.494 2.408 1.494 1.381 0 2.5-.912 2.5-2.035v-1.984c0-1.125 1.119-2.035 2.5-2.035s2.5.91 2.5 2.035v4.727c0 1.123 1.119 2.035 2.5 2.035s2.5-.912 2.5-2.035v1.125-9.973c0-1.123 1.119-2.035 2.5-2.035s2.5.912 2.5 2.035v6.758c.006 1.119 1.123 2.025 2.5 2.025 1.381 0 2.5-.91 2.5-2.035v-5.506c0-1.123 1.119-2.035 2.5-2.035s2.5.912 2.5 2.035v.736c0 1.125 1.119 2.035 2.5 2.035s2.5-.91 2.5-2.035v-5.49c0-1.123 1.119-2.035 2.5-2.035s2.5.912 2.5 2.035v.686c0 1.123 1.119 2.033 2.5 2.033s2.5-.91 2.5-2.033v-2.305.006-2.625c0-1.125 1.119-2.035 2.5-2.035s2.5.91 2.5 2.035v3.68c0 1.123 1.119 2.035 2.5 2.035s2.5-.912 2.5-2.035v-4.57c0-1.125 1.119-2.035 2.5-2.035s2.5.91 2.5 2.035v11.191c0 1.125 1.119 2.035 2.5 2.035s2.5-.91 2.5-2.035v-.367c0-1.125 1.119-2.035 2.5-2.035s2.5.91 2.5 2.035v5.074c0 1.123 1.119 2.035 2.5 2.035s2.5-.912 2.5-2.035v-9.082c0-1.123 1.119-2.033 2.5-2.033s2.5.91 2.5 2.033v10.1c0 1.123 1.119 2.035 2.5 2.035s2.5-.912 2.5-2.035v-5.182c0-1.123 1.119-2.033 2.5-2.033s2.5.91 2.5 2.033v2.121c0 1.123 1.119 2.035 2.5 2.035s2.5-.912 2.5-2.035v-26.455c.001-1.126-1.118-2.036-2.499-2.036z"/>
  </g>
  <path d="M222.337 477.434a1.051 1.051 0 0 1-.33-.77l.11-.605 13.64-35.584c.293-.807.88-1.211 1.76-1.211h3.52c.88 0 1.466.404 1.76 1.211l13.64 35.584.11.605c0 .295-.12.551-.357.77-.239.221-.505.33-.798.33h-2.585c-.367 0-.669-.1-.907-.303-.239-.201-.395-.412-.468-.631l-3.08-7.922h-18.205l-3.025 7.922c-.294.623-.752.934-1.375.934h-2.64c-.294 0-.55-.11-.77-.33zm9.405-13.09h15.07l-7.535-19.744-7.535 19.744zm30.387 13.062c-.239-.238-.357-.541-.357-.906v-26.016c0-.367.119-.678.357-.936.238-.256.541-.385.908-.385h2.31c.403 0 .724.119.962.357s.357.561.357.963v2.42c1.503-2.494 4.051-3.74 7.645-3.74h2.145c.403 0 .715.109.935.33.22.221.33.531.33.936v2.035c0 .367-.11.668-.33.906-.22.24-.532.357-.935.357h-3.135c-2.017 0-3.603.588-4.757 1.76-1.155 1.174-1.732 2.77-1.732 4.785V476.5c0 .365-.129.668-.385.906-.257.24-.569.357-.935.357h-2.475c-.368.001-.67-.117-.908-.357zm22.027-2.42c-2.2-2.217-3.355-5.326-3.465-9.322l-.055-2.199.055-2.201c.11-3.996 1.265-7.104 3.465-9.322 2.2-2.219 5.261-3.328 9.185-3.328 2.64 0 4.868.469 6.683 1.404 1.815.934 3.171 2.098 4.07 3.492.898 1.393 1.384 2.787 1.458 4.18.036.33-.083.623-.357.879-.275.258-.578.387-.908.387h-2.42c-.367 0-.642-.084-.825-.248-.184-.166-.367-.469-.55-.908-.66-1.795-1.567-3.07-2.722-3.822-1.155-.752-2.613-1.127-4.373-1.127-2.31 0-4.144.715-5.5 2.145-1.357 1.43-2.09 3.611-2.2 6.545l-.055 1.926.055 1.924c.11 2.934.843 5.115 2.2 6.545 1.356 1.43 3.19 2.146 5.5 2.146 1.796 0 3.263-.377 4.4-1.129 1.136-.75 2.035-2.025 2.695-3.822.183-.439.366-.742.55-.908.183-.164.458-.246.825-.246h2.42c.33 0 .633.129.908.385s.394.549.357.879c-.074 1.357-.56 2.732-1.458 4.125-.899 1.395-2.255 2.568-4.07 3.521s-4.042 1.43-6.683 1.43c-3.924-.003-6.985-1.112-9.185-3.331zm30.47-6.847v-14.74h-4.345c-.367 0-.66-.109-.88-.33-.22-.219-.33-.512-.33-.879v-1.76c0-.367.11-.67.33-.908s.513-.357.88-.357h4.345v-9.186c0-.365.11-.668.33-.906.22-.238.513-.357.88-.357h2.42c.366 0 .668.119.908.357.238.238.357.541.357.906v9.186h6.82c.366 0 .668.119.908.357.238.238.357.541.357.908v1.76c0 .367-.12.66-.357.879-.239.221-.542.33-.908.33h-6.82v14.355c0 1.871.302 3.281.907 4.234.605.955 1.641 1.432 3.107 1.432h3.355c.366 0 .66.119.88.357.22.238.33.541.33.906v1.816c0 .365-.11.668-.33.906-.22.24-.514.357-.88.357h-3.74c-5.683.002-8.524-3.205-8.524-9.623zm18.782-24.723c-.239-.238-.357-.539-.357-.906v-2.861c0-.365.119-.678.357-.934s.541-.385.908-.385h3.245c.366 0 .678.129.935.385.256.256.385.568.385.934v2.861c0 .367-.129.668-.385.906-.257.24-.569.357-.935.357h-3.245c-.368 0-.67-.117-.908-.357zm.44 33.99c-.239-.238-.357-.541-.357-.906v-26.07c0-.367.119-.67.357-.908s.541-.357.908-.357h2.42c.366 0 .668.119.907.357.238.238.358.541.358.908v26.07c0 .365-.12.668-.358.906-.239.24-.541.357-.907.357h-2.42c-.368.001-.67-.117-.908-.357zm15.097-2.42c-2.2-2.217-3.355-5.326-3.465-9.322l-.055-2.199.055-2.201c.11-3.996 1.265-7.104 3.465-9.322 2.2-2.219 5.261-3.328 9.185-3.328 2.64 0 4.868.469 6.683 1.404 1.815.934 3.171 2.098 4.07 3.492.898 1.393 1.384 2.787 1.458 4.18.036.33-.083.623-.357.879-.275.258-.578.387-.908.387h-2.42c-.367 0-.642-.084-.825-.248-.184-.166-.367-.469-.55-.908-.66-1.795-1.567-3.07-2.722-3.822-1.155-.752-2.613-1.127-4.373-1.127-2.31 0-4.144.715-5.5 2.145-1.357 1.43-2.09 3.611-2.2 6.545l-.055 1.926.055 1.924c.11 2.934.843 5.115 2.2 6.545 1.356 1.43 3.19 2.146 5.5 2.146 1.796 0 3.263-.377 4.4-1.129 1.136-.75 2.035-2.025 2.695-3.822.183-.439.366-.742.55-.908.183-.164.458-.246.825-.246h2.42c.33 0 .633.129.908.385s.394.549.357.879c-.074 1.357-.56 2.732-1.458 4.125-.899 1.395-2.255 2.568-4.07 3.521s-4.042 1.43-6.683 1.43c-3.924-.003-6.985-1.112-9.185-3.331zm42.569 2.42c-.22-.238-.33-.541-.33-.906v-35.971c0-.367.11-.668.33-.908.22-.238.513-.357.88-.357h2.75c.366 0 .66.119.88.357.22.24.33.541.33.908v32.615h18.37c.403 0 .724.119.962.357s.358.541.358.906v2.092c0 .365-.129.668-.385.906-.257.24-.569.357-.935.357h-22.33c-.367.002-.66-.116-.88-.356zm32.752-.191c-1.522-.734-2.732-1.732-3.63-2.998a7.1 7.1 0 0 1-1.348-4.207c0-2.42.99-4.4 2.97-5.941 1.98-1.539 4.675-2.564 8.085-3.08l8.25-1.154v-1.596c0-3.775-2.182-5.664-6.545-5.664-1.687 0-3.044.34-4.07 1.018-1.027.68-1.779 1.477-2.255 2.393-.147.367-.302.613-.467.742s-.395.193-.688.193h-2.145c-.33 0-.615-.119-.853-.357a1.162 1.162 0 0 1-.357-.854c0-.844.394-1.824 1.182-2.941.788-1.119 2.008-2.092 3.658-2.916s3.666-1.238 6.05-1.238c4.106 0 7.049.955 8.828 2.861 1.778 1.906 2.667 4.289 2.667 7.15V476.5c0 .365-.119.668-.357.906-.239.24-.542.357-.908.357h-2.42c-.367 0-.66-.117-.88-.357-.22-.238-.33-.541-.33-.906v-2.42c-.807 1.209-1.98 2.219-3.52 3.023-1.54.807-3.52 1.211-5.94 1.211-1.797 0-3.456-.367-4.977-1.099zm12.017-5.281c1.54-1.576 2.31-3.867 2.31-6.875v-1.539l-6.435.936c-2.64.365-4.639.988-5.995 1.869-1.357.881-2.035 1.98-2.035 3.301 0 1.504.613 2.658 1.842 3.465 1.228.807 2.686 1.209 4.373 1.209 2.42-.001 4.4-.788 5.94-2.366zm15.647 5.472c-.238-.238-.357-.541-.357-.906v-26.07c0-.367.119-.67.357-.908s.541-.357.908-.357h2.365c.402 0 .715.109.935.33s.33.531.33.936v2.42c1.101-1.357 2.374-2.402 3.822-3.135 1.448-.734 3.254-1.102 5.417-1.102 3.521 0 6.252 1.129 8.195 3.383 1.943 2.256 2.916 5.234 2.916 8.938V476.5c0 .365-.12.668-.357.906-.24.24-.542.357-.908.357h-2.529c-.367 0-.67-.117-.908-.357-.238-.238-.357-.541-.357-.906v-15.236c0-2.639-.643-4.693-1.926-6.16-1.283-1.465-3.116-2.199-5.5-2.199-2.346 0-4.217.742-5.609 2.227-1.395 1.486-2.09 3.529-2.09 6.133V476.5c0 .365-.119.668-.357.906-.239.24-.541.357-.908.357h-2.529c-.369.001-.672-.117-.91-.357zm34.65-2.832c-1.926-2.492-2.962-5.646-3.107-9.461l-.056-1.648.056-1.65c.146-3.777 1.19-6.92 3.135-9.434 1.942-2.51 4.82-3.768 8.635-3.768 3.813 0 6.783 1.357 8.91 4.07v-12.705c0-.365.117-.668.357-.906.236-.238.539-.357.906-.357h2.475c.367 0 .67.119.908.357s.357.541.357.906V476.5c0 .365-.119.668-.357.906-.238.24-.541.357-.908.357h-2.363c-.367 0-.66-.117-.881-.357-.221-.238-.33-.541-.33-.906v-2.365c-2.09 2.787-5.115 4.18-9.074 4.18-3.85-.001-6.739-1.247-8.663-3.741zm15.481-3.107c1.283-1.705 1.98-3.73 2.092-6.078.035-.402.055-1.1.055-2.09 0-1.025-.02-1.74-.055-2.145-.074-2.236-.781-4.17-2.119-5.803-1.338-1.631-3.254-2.447-5.746-2.447-2.641 0-4.564.824-5.775 2.475-1.21 1.65-1.869 3.814-1.979 6.49l-.056 1.596c0 7.039 2.604 10.559 7.811 10.559 2.565-.001 4.488-.852 5.772-2.557zm18.783 5.609c-1.742-.824-3.035-1.768-3.877-2.832-.844-1.063-1.266-1.943-1.266-2.641 0-.365.129-.65.385-.852s.531-.303.826-.303h2.309c.221 0 .395.037.523.109.127.074.303.24.521.496.844 1.027 1.789 1.834 2.834 2.42s2.447.879 4.207.879c1.98 0 3.564-.365 4.758-1.1 1.191-.732 1.787-1.795 1.787-3.189 0-.916-.258-1.65-.77-2.201-.514-.549-1.367-1.045-2.559-1.484s-2.961-.916-5.307-1.43c-3.189-.695-5.445-1.705-6.766-3.025s-1.98-3.025-1.98-5.115c0-1.355.404-2.666 1.211-3.932s2.008-2.291 3.602-3.08c1.596-.789 3.494-1.184 5.693-1.184 2.311 0 4.281.387 5.912 1.156s2.859 1.668 3.686 2.695c.824 1.025 1.236 1.889 1.236 2.584 0 .33-.119.605-.357.826-.238.219-.521.33-.852.33h-2.09c-.514 0-.881-.201-1.1-.605-.625-.697-1.146-1.238-1.568-1.623s-1.037-.715-1.842-.99c-.807-.275-1.816-.412-3.025-.412-1.797 0-3.172.377-4.125 1.127-.953.752-1.43 1.752-1.43 2.998 0 .77.201 1.422.605 1.953.402.531 1.172 1.025 2.309 1.484s2.824.926 5.061 1.402c3.482.734 5.949 1.779 7.396 3.135 1.449 1.357 2.174 3.1 2.174 5.225 0 1.578-.449 3.008-1.348 4.291s-2.236 2.291-4.016 3.025c-1.779.732-3.896 1.1-6.352 1.1-2.528.001-4.663-.411-6.405-1.237zm26.812-2.09c-2.201-2.217-3.355-5.326-3.465-9.322l-.055-2.199.055-2.201c.109-3.996 1.264-7.104 3.465-9.322 2.199-2.219 5.26-3.328 9.186-3.328 2.639 0 4.867.469 6.682 1.404 1.814.934 3.172 2.098 4.07 3.492.898 1.393 1.383 2.787 1.457 4.18.037.33-.082.623-.357.879-.275.258-.578.387-.908.387h-2.42c-.367 0-.641-.084-.824-.248-.184-.166-.367-.469-.551-.908-.66-1.795-1.566-3.07-2.723-3.822-1.154-.752-2.611-1.127-4.371-1.127-2.311 0-4.145.715-5.5 2.145-1.357 1.43-2.09 3.611-2.201 6.545l-.055 1.926.055 1.924c.111 2.934.844 5.115 2.201 6.545 1.355 1.43 3.189 2.146 5.5 2.146 1.795 0 3.262-.377 4.398-1.129 1.137-.75 2.035-2.025 2.695-3.822.184-.439.367-.742.551-.908.184-.164.457-.246.824-.246h2.42c.33 0 .633.129.908.385s.395.549.357.879c-.074 1.357-.559 2.732-1.457 4.125-.898 1.395-2.256 2.568-4.07 3.521s-4.043 1.43-6.682 1.43c-3.925-.003-6.986-1.112-9.185-3.331zm30.936 2.229c-1.521-.734-2.73-1.732-3.629-2.998s-1.348-2.668-1.348-4.207c0-2.42.99-4.4 2.969-5.941 1.98-1.539 4.676-2.564 8.086-3.08l8.25-1.154v-1.596c0-3.775-2.182-5.664-6.545-5.664-1.688 0-3.045.34-4.07 1.018-1.027.68-1.779 1.477-2.254 2.393-.148.367-.303.613-.469.742-.164.129-.395.193-.688.193h-2.145c-.33 0-.615-.119-.854-.357s-.357-.523-.357-.854c0-.844.395-1.824 1.184-2.941.787-1.119 2.008-2.092 3.658-2.916 1.648-.824 3.666-1.238 6.049-1.238 4.105 0 7.049.955 8.828 2.861 1.777 1.906 2.668 4.289 2.668 7.15V476.5c0 .365-.121.668-.357.906-.24.24-.543.357-.908.357h-2.42c-.367 0-.66-.117-.881-.357-.219-.238-.33-.541-.33-.906v-2.42c-.807 1.209-1.979 2.219-3.52 3.023-1.539.807-3.52 1.211-5.939 1.211-1.797 0-3.457-.367-4.978-1.099zm12.017-5.281c1.541-1.576 2.311-3.867 2.311-6.875v-1.539l-6.436.936c-2.639.365-4.639.988-5.994 1.869-1.357.881-2.035 1.98-2.035 3.301 0 1.504.613 2.658 1.842 3.465s2.686 1.209 4.373 1.209c2.42-.001 4.4-.788 5.939-2.366zm15.702 15.951c-.238-.221-.357-.533-.357-.936v-36.52c0-.404.119-.715.357-.936s.541-.33.908-.33h2.311c.402 0 .715.109.936.33.219.221.328.531.328.936v2.42c2.127-2.824 5.152-4.236 9.076-4.236 3.85 0 6.736 1.221 8.662 3.658 1.926 2.439 2.943 5.547 3.053 9.322.035.404.055 1.027.055 1.871s-.02 1.467-.055 1.869c-.109 3.74-1.127 6.84-3.053 9.295-1.926 2.457-4.813 3.686-8.662 3.686-3.924 0-6.895-1.393-8.91-4.18v12.814c0 .365-.119.668-.357.908a1.238 1.238 0 0 1-.908.357h-2.475c-.368.002-.671-.109-.909-.328zm18.289-16.336c1.209-1.65 1.869-3.813 1.979-6.49.037-.365.057-.898.057-1.594 0-7.041-2.605-10.561-7.811-10.561-2.566 0-4.502.852-5.803 2.557-1.303 1.705-1.99 3.713-2.063 6.023-.037.404-.055 1.119-.055 2.145 0 1.027.018 1.742.055 2.145.072 2.238.779 4.172 2.117 5.803 1.338 1.633 3.254 2.447 5.748 2.447 2.641-.001 4.565-.825 5.776-2.475zm16.334 3.273c-2.236-2.328-3.465-5.51-3.686-9.543l-.055-1.871.055-1.814c.221-3.959 1.449-7.113 3.686-9.459 2.236-2.348 5.225-3.521 8.965-3.521 4.033 0 7.158 1.285 9.377 3.852s3.328 6.049 3.328 10.449v.99c0 .367-.119.67-.357.908s-.541.357-.908.357h-19.084v.494c.109 2.385.844 4.42 2.199 6.105 1.357 1.688 3.154 2.529 5.391 2.529 1.723 0 3.125-.338 4.207-1.018 1.082-.678 1.898-1.383 2.447-2.117.33-.439.586-.705.771-.797.182-.092.494-.139.934-.139h2.42c.33 0 .615.092.854.275s.357.422.357.715c0 .807-.496 1.779-1.484 2.916-.99 1.137-2.393 2.117-4.209 2.941-1.814.826-3.896 1.238-6.242 1.238-3.742.002-6.73-1.162-8.966-3.49zM657.6 461.43v-.166c0-2.566-.697-4.656-2.09-6.27-1.395-1.613-3.266-2.42-5.611-2.42-2.383 0-4.254.807-5.609 2.42-1.357 1.613-2.035 3.703-2.035 6.27v.166H657.6z" fill="#4C566A"/>
</svg>
